Coordinates
version=1
nRows=7
nColumns=40
inDegrees=yes

Units are S.I. units (second, meters, Newtons, ...)
Angles are in degrees.

endheader
time	pelvis_tilt	pelvis_list	pelvis_rotation	pelvis_tx	pelvis_ty	pelvis_tz	hip_flexion_r	hip_adduction_r	hip_rotation_r	knee_angle_r	knee_angle_r_beta	ankle_angle_r	subtalar_angle_r	mtp_angle_r	hip_flexion_l	hip_adduction_l	hip_rotation_l	knee_angle_l	knee_angle_l_beta	ankle_angle_l	subtalar_angle_l	mtp_angle_l	lumbar_extension	lumbar_bending	lumbar_rotation	arm_flex_r	arm_add_r	arm_rot_r	elbow_flex_r	pro_sup_r	wrist_flex_r	wrist_dev_r	arm_flex_l	arm_add_l	arm_rot_l	elbow_flex_l	pro_sup_l	wrist_flex_l	wrist_dev_l
     13.28250000	     -1.87629813	     -3.31534883	     -2.86999450	      1.07206507	      0.93606370	      0.43263233	     32.52231300	     -6.22816899	     -5.36755922	     57.28168528	     57.28168528	      0.17798593	    -13.19380423	     -0.01226160	      7.23940814	     -4.34159689	    -10.42835450	     18.00416627	     18.00416627	     13.97371160	     -9.09548598	     -3.51346895	     -9.77713925	      5.61779848	      1.06604441	      5.13883861	    -13.57319402	     -0.61085248	     47.65316141	     46.29738510	      0.00000000	      0.00000000	     23.44866745	    -14.29413156	     10.20111410	     32.12949025	     45.57174420	      0.00000000	      0.00000000
     13.29357143	     -1.73708733	     -3.35837947	     -3.01161884	      1.07191394	      0.93610726	      0.43290945	     32.69952913	     -6.04385625	     -5.34274557	     54.17221541	     54.17221541	      0.19778804	    -12.90636626	      0.02856404	      6.06318796	     -4.28621088	    -10.61672652	     17.27385165	     17.27385165	     14.10483138	     -8.95309360	     -4.02586073	     -9.88525527	      5.77099844	      0.90485240	      4.70263322	    -13.25777273	     -1.67062460	     42.20955302	     46.49316110	      0.00000000	      0.00000000	     24.65863272	    -15.01281484	     10.25874102	     33.92629993	     45.60710909	      0.00000000	      0.00000000
     13.30464286	     -1.62515124	     -3.43910855	     -3.15018357	      1.07182800	      0.93594415	      0.43328108	     32.76893778	     -5.79075863	     -5.32446907	     50.83333334	     50.83333334	      0.35891396	    -12.38797416	      0.34228382	      4.90122733	     -4.28002495	    -10.78915024	     16.54798765	     16.54798765	     14.44754049	     -8.63797700	     -4.12043795	    -10.06216787	      5.97098106	      1.21381748	      2.88809815	    -13.66116621	     -1.77806833	     40.13899151	     46.55530809	      0.00000000	      0.00000000	     26.25781318	    -15.27505191	     10.08443506	     35.10432529	     45.65907182	      0.00000000	      0.00000000
     13.31571429	     -1.59297660	     -3.37948174	     -3.31472812	      1.07179398	      0.93544874	      0.43377389	     32.80371579	     -5.65509870	     -5.30931344	     47.25158919	     47.25158919	      0.27334020	    -11.81855569	     -0.24845603	      3.83787696	     -4.15462689	    -11.15379094	     15.82876725	     15.82876725	     14.59588720	     -8.21525684	     -4.85346309	    -10.04341000	      5.95978212	      0.93870392	      3.17738755	    -13.10281725	     -3.67118858	     33.16143284	     46.88115684	      0.00000000	      0.00000000	     27.20035113	    -16.13820451	      9.99979331	     37.15702815	     45.71605073	      0.00000000	      0.00000000
     13.32678571	     -1.55124954	     -3.40172618	     -3.42719538	      1.07190543	      0.93488172	      0.43426529	     32.64564957	     -5.45446924	     -5.47493509	     43.45836250	     43.45836250	      0.48366921	    -10.82716918	      0.05648101	      2.79142786	     -4.09511665	    -11.33701890	     15.18795691	     15.18795691	     14.94311093	     -7.92364514	     -4.95314120	    -10.07964283	      6.12370585	      1.09960429	      1.37809069	    -13.45026963	     -3.91552134	     31.62477072	     46.93648868	      0.00000000	      0.00000000	     28.56414203	    -16.46787896	      9.74848008	     38.33954208	     45.77246480	      0.00000000	      0.00000000
     13.33785714	     -1.45306315	     -3.31303707	     -3.59080724	      1.07223429	      0.93418388	      0.43495805	     32.30740074	     -5.33227876	     -5.69803315	     39.54684182	     39.54684182	      0.81295527	     -9.53505746	      0.13354137	      1.60309613	     -3.91998563	    -11.69807655	     14.42349159	     14.42349159	     15.24748923	     -7.40476762	     -5.18619988	    -10.23226928	      6.05885949	      1.57080450	     -0.22528142	    -13.71280889	     -4.39048269	     29.27168047	     47.04289222	      0.00000000	      0.00000000	     29.86569728	    -16.67648289	      9.44630150	     40.07193247	     45.83851534	      0.00000000	      0.00000000
     13.34892857	     -1.41820007	     -3.28936906	     -3.68267125	      1.07266827	      0.93330697	      0.43559472	     31.84849589	     -5.14315136	     -6.12614141	     35.45117698	     35.45117698	      0.99140023	     -7.99979207	      0.37859775	      0.54705146	     -3.82662536	    -11.96872747	     13.78382638	     13.78382638	     15.56589038	     -6.92580976	     -5.45017100	    -10.22555454	      6.19059139	      1.69511830	     -1.72863803	    -13.93322467	     -4.86660343	     27.22937574	     47.14417576	      0.00000000	      0.00000000	     30.88491984	    -17.01907607	      9.13694028	     41.68227635	     45.89893786	      0.00000000	      0.00000000
